<?xml version="1.0"?><svg width="387" height="361" xmlns="http://www.w3.org/2000/svg">
 <title>submarine coloring</title>
 <g>
  <title>Layer 1</title>
  <g id="svg_20">
   <ellipse ry="88.177287" rx="173.513567" id="svg_18" cy="263.82272" cx="182.513567" stroke-linecap="null" stroke-linejoin="null" stroke-dasharray="null" stroke-width="6" stroke="#000000" fill="#ffffff"/>
   <path fill="none" fill-rule="evenodd" stroke="#000000" stroke-width="5" d="m225.424866,135.079254l0.255402,-0.707932l0.86824,1.793411q0.919266,1.746246 1.429993,1.887817q0.510742,0.094391 1.123581,2.454163q0.663925,2.359756 1.532166,2.737305q0.919312,0.330414 1.430054,0.094421q0.510681,-0.235977 1.123581,0.849533q0.663925,1.0383 0.817169,0.56633q0.102097,-0.471985 1.225739,-0.471985q1.174652,0 1.327835,0.707962q0.102158,0.707901 2.400406,1.08551q2.298233,0.330338 4.74971,1.13266q2.400406,0.849518 2.553635,0.943939l0.102173,0.141571l0.102097,0.141571l0.153244,0.094406l0.255341,0.471924l0.255386,0.47197l0.153183,-0.47197l0.102158,-0.471924l0.510742,0l0.510681,0l-0.102097,16.046417q-0.153244,16.046417 -0.306427,16.990295l-0.102158,0.943939l-0.255402,0.09436l-0.255341,0.141632l-1.53215,0q-1.532166,0 -3.064316,-0.235992q-1.532227,-0.235977 -17.619965,-2.359787q-16.087738,-2.12381 -37.793488,-2.265381l-21.705704,-0.09436l0,-0.094421l0,-0.141571l-0.510712,-0.235977q-0.510696,-0.235992 -0.612869,-0.377548q-0.153198,-0.094421 -0.66394,-11.657288q-0.510712,-11.56282 -0.357498,-13.450638q0.102158,-1.887817 0.86824,-1.982239q0.766068,-0.141571 1.378952,-0.943878q0.66394,-0.849533 0,-2.029404l-0.612885,-1.179916l1.634323,0q1.685379,0 2.349319,-0.56633q0.612869,-0.613541 2.400406,-0.377548q1.787521,0.235977 2.911102,0.566315q1.174667,0.377563 1.68541,0.377563q0.510712,0 0.86821,-0.377563q0.408569,-0.330338 0.817154,0q0.357498,0.377563 0.715027,-0.188766q0.408554,-0.613541 1.021423,-0.943878q0.663956,-0.377563 1.021454,0.188766q0.408569,0.613541 1.532181,0.47197q1.174667,-0.094406 1.32785,-0.566391q0.102158,-0.471909 3.421875,-0.707886q3.319656,-0.235992 3.728241,0.707886q0.357498,0.943954 0.715057,0.377563q0.408524,-0.613541 1.685333,-0.755112q1.276825,-0.09436 1.787567,0.47197q0.510681,0.613541 1.429993,0.47197q0.86824,-0.094406 1.123581,-0.330399q0.255402,-0.235992 0.6129,0.141571q0.408585,0.330399 1.685349,0.330399q1.27681,0 1.787552,-0.235977q0.510742,-0.235992 1.021423,-0.094421q0.510742,0.094421 0.510742,-0.377563q0,-0.471909 2.298233,-0.377548q2.298248,0.141571 4.851883,0.141571q2.553635,0 3.319717,0.235977q0.766083,0.235992 1.276764,0.094421q0.510742,-0.094421 0.766144,0.47197q0.255341,0.613541 0.868179,0q0.663971,-0.566391 1.532211,-0.802368q0.919266,-0.235931 1.174606,0.330399q0.255402,0.613541 1.021469,0.377563q0.766083,-0.235992 2.553589,-0.471985l1.787552,-0.235977l-0.102158,-0.141571q-0.153183,-0.09436 -0.306412,-0.188782q-0.102173,-0.141556 -0.86824,-1.415848q-0.766083,-1.321457 0.510742,-1.69902q1.27681,-0.330368 0.510727,-0.47197q-0.766068,-0.094391 -0.357559,-0.802307q0.357559,-0.707932 -0.153168,-1.179901l-0.510742,-0.471939l-0.153183,-0.094391l-0.102158,-0.141602l0.408569,-0.330368q0.357513,-0.377548 0.715012,-0.755112q0.408569,-0.330368 0.66391,-0.471939l0.255402,-0.094421l0.102158,0q0.153183,0 0.408524,-0.707916zm-36.516617,9.203064q0,-0.471909 0.153183,-0.377548q0.102158,0.141571 0.204315,0.283203q0.153183,0.094345 0.153183,0.56633q0,0.47197 -0.153183,0.377548q-0.102158,-0.141571 -0.204315,-0.283142q-0.153183,-0.094406 -0.153183,-0.566391zm14.964157,0.377563q-0.153229,0.094421 0.715012,0q0.919312,-0.141571 0.153229,-0.141571q-0.766083,0 -0.86824,0.141571z"/>
   <path fill="none" fill-rule="evenodd" stroke="#000000" stroke-width="5" d="m189.674332,217.43512q2.553589,-0.235977 4.596481,0.707962q2.042892,0.943878 4.187958,3.634018q2.196075,2.73735 4.494324,9.108719q2.298233,6.371353 2.553635,13.450623q0.255341,7.07933 -1.532166,13.922653q-1.787552,6.843292 -3.319717,9.203094q-1.53215,2.359772 -3.932556,4.625092q-2.451477,2.218231 -6.281876,2.454224q-3.83046,0.235931 -7.30336,-2.926117q-3.421844,-3.20932 -5.720093,-10.052612q-2.298233,-6.843338 -2.553604,-13.922653q-0.255371,-7.079269 0.766083,-11.562866q1.021454,-4.483551 3.421844,-9.29744q2.451447,-4.861145 5.260437,-6.984909q2.808975,-2.123795 5.36261,-2.359787z"/>
   <path fill="none" fill-rule="evenodd" stroke="#000000" stroke-width="5" d="m355.659149,240.466431l-3.064362,0.094421l-2.298248,-0.094421q-2.298248,-0.141556 -5.975464,-4.719528q-3.728241,-4.625107 -9.090851,-12.176407l-5.362549,-7.551224l-0.153259,-0.094421l-0.102142,-0.141571l-0.102112,-0.141571l-0.153229,-0.094406l-0.153198,-0.09436l-0.102142,-0.141632l-0.102173,-0.141571l-0.153229,-0.094406l-0.255341,-0.471924l-0.255341,-0.47197l-0.153259,0l-0.102142,0l0,-0.47197l0,-0.471909l6.894775,0q6.894714,0 8.171539,-9.675049q1.276825,-9.675034 9.193024,-9.108704q7.916199,0.613525 11.899841,2.170959q3.932556,1.510269 7.150116,4.719528q3.166473,3.162109 3.677216,3.303665q0.510681,0.094421 2.655731,5.757828q2.196075,5.663483 1.940735,16.28241q-0.255341,10.618973 -1.429993,11.940414q-1.123566,1.274292 -10.316589,1.510269q-9.193024,0.235992 -12.257355,0.377548z"/>
   <path fill="none" fill-rule="evenodd" stroke="#000000" stroke-width="5" d="m248.305283,139.56282l0.102097,8.967117l-0.510681,0l-0.510742,0l-0.102158,0.471924l-0.153183,0.47197l-0.255386,-0.47197l-0.255341,-0.471924l-0.153244,-0.094406l-0.102097,-0.141571l-0.102173,-0.141571q-0.153229,-0.094421 -2.553635,-0.943939q-2.451477,-0.802322 -4.74971,-1.13266q-2.298248,-0.377609 -2.400406,-1.08551q-0.153183,-0.707962 -1.327835,-0.707962q-1.123642,0 -1.225739,0.471985q-0.153244,0.47197 -0.817169,-0.56633q-0.6129,-1.08551 -1.123581,-0.849533q-0.510742,0.235992 -1.430054,-0.094421q-0.86824,-0.377548 -1.532166,-2.737305q-0.612839,-2.359772 -1.123581,-2.454163q-0.510727,-0.141571 -1.429993,-1.887817l-0.86824,-1.793411l-0.255402,0.707932q-0.255341,0.707916 -0.408524,0.707916l-0.102158,0l0,-0.707916q0,-0.707932 -0.510742,-0.707932q-0.510742,0 -0.766068,-1.179901q-0.255341,-1.179855 -1.021484,-1.179855q-0.766083,0 -0.357498,-1.179901q0.357498,-1.179871 -0.510681,-1.557419q-0.919327,-0.330368 -1.532227,-2.07663q-0.66391,-1.793411 -1.53215,-1.887794q-0.919266,-0.141602 -1.32785,-0.755112l-0.357498,-0.566353l-0.153244,0.094383l-0.102158,0.141602l-0.102158,0.141563l-0.153183,0.094391l-0.153229,-0.094391l-0.102112,-0.141563l-0.102158,-0.141602l-0.153229,-0.094383l-0.153183,-0.094391l-0.102158,-0.141594l0,-0.141571l0,-0.094421l0,-0.094383l0,-0.141571l0.102158,-0.141594l0.153183,-0.094391l0.153229,-0.094383l0.102158,-0.141617l0.102112,-0.141548l0.153229,-0.094391l0.153183,-0.094421l0.102158,-0.141563l0.102158,-0.141602l0.153244,-0.094383l0.255341,-0.707932q0.255341,-0.707924 2.655746,-1.274284q2.451477,-0.613533 2.553635,-36.812347q0.153183,-36.246037 1.429993,-38.133823l1.276825,-1.887829l0.153244,-0.707916l0.102097,-0.707928l-1.021423,-0.094387l-1.021408,-0.141609l-1.532227,-0.235973q-1.532166,-0.235958 -2.808975,-0.471939q-1.276764,-0.235989 -20.428879,-0.37759l-19.152084,-0.094391l-0.102158,-1.179863q-0.153214,-1.179897 0.102158,-3.067696q0.255341,-1.887817 0.612869,-5.191494q0.408585,-3.303677 -0.102158,-3.303677q-0.510712,0 -1.021454,-1.038296q-0.510712,-1.085484 -1.123581,-2.642937q-0.663956,-1.510244 -1.327866,-1.274281q-0.612869,0.235985 -1.736481,-3.30368q-1.174667,-3.539628 -3.370743,-5.521845q-2.145065,-2.029389 -4.698669,-2.265379q-2.553604,-0.235979 -4.341141,0.707931q-1.787521,0.943909 -3.421844,3.162086l-1.685364,2.265369l-0.255371,0.707958l-0.255341,0.707928l-0.153244,0.094389l-0.102127,0.141563l-0.102158,0.141602l-0.153214,0.094387l-0.255371,-0.471941l-0.255341,-0.471975l0,-0.471941l0,-0.47197l0,-0.471939l0,-0.471941l-0.153214,-0.094389l-0.102158,-0.1416l-0.102158,-0.141594l-0.153214,-0.094385l-0.153214,-0.094389l-0.102127,-0.141573l0.102127,-0.141592q0.153214,-0.094388 0.306427,-0.188776l0.102158,-0.141603l-0.510712,-0.141599l-0.510742,-0.09439l-0.102158,0.471979l-0.153214,0.471942l-0.153198,-0.094389l-0.102142,-0.141573l-0.102158,-0.141592l-0.153214,-0.094388l-0.153198,0.094388l-0.102158,0.141592l-0.766083,0.141573l-0.766083,0.094389l0.102158,-0.471942l0.153214,-0.471979l0.255341,-0.471939l0.255371,-0.47194l2.400391,-3.20929q2.451477,-3.162104 5.515808,-4.341973q3.064346,-1.179899 33.196945,-0.471941q30.132629,0.70793 33.094849,2.737319q2.911087,1.982207 4.187912,3.634047q1.27681,1.651838 2.298233,4.955486q1.021484,3.303677 1.174667,52.622808q0.102158,49.319138 3.064377,50.263046q2.911072,0.943909 6.230789,4.011604q3.319717,3.067688 3.830399,4.483543q0.510742,1.415894 0.663986,10.382996z"/>
   <path fill="none" fill-rule="evenodd" stroke="#000000" stroke-width="5" d="m213.576111,245.752304l0.102158,2.831757l-1.429993,6.843277q-1.378983,6.843353 -2.655807,10.147034q-1.276764,3.30365 -3.166473,6.371338q-1.94075,3.067719 -3.881485,4.719543q-1.889664,1.651825 -4.596481,3.162109q-2.655792,1.557434 -2.655792,1.699036l0,0.09436l-0.510681,0.094421q-0.510742,0.141571 -4.341141,0.141571q-3.83046,0 -6.128693,-0.943878q-2.298248,-0.943939 -4.851852,-3.067688q-2.553619,-2.12381 -4.698669,-5.097137q-2.196075,-2.926086 -4.494354,-9.297455q-2.298233,-6.371399 -2.962189,-13.450684l-0.612869,-7.079315l1.430038,-6.843338q1.378937,-6.843277 3.677185,-11.798798q2.298264,-4.955521 4.187958,-7.315308q1.940735,-2.359741 2.451447,-2.359741q0.510712,0 1.787537,-1.321487q1.276779,-1.274292 4.34111,-2.21817q3.064377,-0.943878 6.639435,-0.707962q3.575058,0.235992 6.639374,1.65184q3.064316,1.415924 6.230804,5.049942q3.21756,3.681229 4.49437,6.512924q1.276825,2.831711 3.064331,11.090912q1.787552,8.259186 1.940735,11.090897zm-23.901779,-28.317184q2.553589,-0.235977 4.596481,0.707962q2.042892,0.943878 4.187958,3.634018q2.196075,2.73735 4.494324,9.108719q2.298233,6.371353 2.553635,13.450623q0.255341,7.07933 -1.532166,13.922653q-1.787552,6.843292 -3.319717,9.203094q-1.53215,2.359772 -3.932556,4.625092q-2.451477,2.218231 -6.281876,2.454224q-3.83046,0.235931 -7.30336,-2.926117q-3.421844,-3.20932 -5.720093,-10.052612q-2.298233,-6.843338 -2.553604,-13.922653q-0.255371,-7.079269 0.766083,-11.562866q1.021454,-4.483551 3.421844,-9.29744q2.451447,-4.861145 5.260437,-6.984909q2.808975,-2.123795 5.36261,-2.359787z"/>
   <path fill="none" fill-rule="evenodd" stroke="#000000" stroke-width="5" d="m204.893829,108.413887l0.102158,11.326881l2.80899,0l2.808975,0l1.27681,0q1.276764,0 1.378922,0.707924q0.153244,0.707924 0.153244,1.179893l0,0.471947l0.153183,0.094383l0.102158,0.141617l0.102158,0.141548l0.153183,0.094421l0.153244,0.094391l0.102158,0.141563l0.102158,0.141602l0.153183,0.094383l0.153244,0.094391l0.102097,0.141594l0.510742,0.141571l0.510742,0.094383l0,0.094421l0,0.141571l0.102158,0.141594l0.153183,0.094391l0.153229,0.094383l0.102158,0.141602l0.102112,0.141563l0.153229,0.094406l0.153183,-0.094406l0.102158,-0.141563l0.102158,-0.141602l0.153244,-0.094383l0.357498,0.566353q0.408585,0.61351 1.32785,0.755112q0.86824,0.094383 1.53215,1.887794q0.6129,1.746262 1.532227,2.07663q0.868179,0.377548 0.510681,1.557419q-0.408585,1.179901 0.357498,1.179901q0.766144,0 1.021484,1.179855q0.255325,1.179901 0.766068,1.179901q0.510742,0 0.510742,0.707932l0,0.707916l-0.255402,0.094421q-0.255341,0.141571 -0.66391,0.471939q-0.357498,0.377563 -0.715012,0.755112l-0.408569,0.330368l0.102158,0.141602l0.153183,0.094391l0.510742,0.471939q0.510727,0.47197 0.153168,1.179901q-0.408508,0.707916 0.357559,0.802307q0.766083,0.141602 -0.510727,0.471985q-1.276825,0.377548 -0.510742,1.699005q0.766068,1.274292 0.86824,1.415848q0.153229,0.094421 0.306412,0.188782l0.102158,0.141571l-1.787552,0.235992q-1.787506,0.235977 -4.341141,0.707947q-2.553574,0.47197 -2.808914,-0.141571q-0.255402,-0.566391 -0.766144,-0.47197q-0.510681,0.141571 -1.276764,-0.094421q-0.766083,-0.235977 -3.319717,-0.235977q-2.553635,0 -4.341141,0q-1.787506,0 -1.021423,0.235977q0.766083,0.235992 -1.021469,0.235992q-1.787506,0 -2.298248,0.235992q-0.510742,0.235977 -1.787552,0.235977q-1.276764,0 -1.685349,-0.330399q-0.357498,-0.377563 -0.6129,-0.141571q-0.255341,0.235992 -1.123581,0.330399q-0.919312,0.141571 -1.429993,-0.47197q-0.510742,-0.56633 -1.787567,-0.47197q-1.27681,0.141571 -1.685333,0.755112q-0.357559,0.566391 -0.510742,0.094421q-0.102158,-0.471985 -0.6129,-0.471985q-0.510681,0 -0.612839,0.471985q-0.153244,0.47197 -0.408585,-0.235992q-0.255341,-0.707901 -2.962219,-0.707901q-2.655731,0 -2.757889,0.471909q-0.153183,0.471985 -1.32785,0.566391q-1.123611,0.141571 -1.532181,-0.47197q-0.357498,-0.56633 -1.021454,-0.188766q-0.612869,0.330338 -1.021423,0.943878q-0.357529,0.56633 -0.715027,0.188766q-0.408585,-0.330338 -0.817154,0q-0.357498,0.377563 -0.86821,0.377563q-0.510742,0 -1.68541,-0.377563q-1.123581,-0.330338 -2.911102,-0.566315q-1.787537,-0.235992 -2.400406,0.377548q-0.66394,0.56633 -2.349319,0.56633l-1.634323,0l-0.766068,0.094421l-0.766083,0.141556l-0.102158,0.141632l-0.153214,0.09436l-0.255371,-0.47197l-0.255341,-0.471909l-0.255371,-4.483582q-0.255371,-4.483536 -0.510742,-5.663437q-0.255341,-1.179871 -1.276779,-3.067688q-1.021454,-1.887833 -1.787537,-4.483582q-0.766083,-2.595718 -0.408585,-3.775612l0.408585,-1.179871l0.102158,0q0.153214,0 0.306427,-0.23597l0.102127,-0.236l2.298264,-1.038284q2.298248,-1.085495 13.789505,-1.227097l11.491257,-0.094383l0.408585,-12.034813q0.357498,-12.034798 2.042892,-13.545074q1.634323,-1.557426 6.741531,-1.557426q5.107224,0 6.537231,1.557426q1.378967,1.510277 1.634308,2.218193q0.255402,0.707924 0.408585,12.034813z"/>
   <path fill="none" fill-rule="evenodd" stroke="#000000" stroke-width="5" d="m311.226288,232.065674l0.255341,0.47197l0.255402,0.707901l0.255341,0.707962l0.153168,0.471909l0.102173,0.47197l0,0.094421q0,0.141571 0.919312,5.663406q0.868256,5.569061 0.102173,11.468506q-0.766083,5.899414 -2.80899,10.382935q-2.042908,4.483551 -4.954041,6.748932q-2.962158,2.218231 -6.792603,2.218231q-3.830414,0 -6.894714,-2.831757q-3.064331,-2.831726 -5.209381,-8.353546q-2.196136,-5.569077 -2.55365,-11.704453l-0.408569,-6.135376l0.612885,-3.77565q0.66391,-3.77565 2.706818,-8.259201q2.042908,-4.483536 2.911133,-5.663467q0.919281,-1.179871 3.983643,-2.69014q3.064331,-1.557419 5.61792,-1.321426q2.553619,0.235977 4.6987,1.793396q2.196075,1.510284 2.349304,1.982254q0.102112,0.471909 0.612854,0.471909q0.510742,0 1.634308,2.12381q1.174652,2.12381 1.685394,3.303665q0.510681,1.179871 0.766083,1.65184zm-5.209381,-6.512924q-0.66391,-1.0383 0.102173,-0.330414q0.766083,0.707962 0.612823,1.08551q-0.102142,0.330353 -0.714996,-0.755096z"/>
   <path fill="none" fill-rule="evenodd" stroke="#000000" stroke-width="5" d="m157.600937,123.752373l1.940735,-1.65184l-0.612869,1.415848q-0.663925,1.415886 0.102158,4.011604q0.766083,2.595749 1.787537,4.483582q1.021439,1.887817 1.276779,3.067688q0.255371,1.179901 0.510742,5.663437l0.255371,4.483582l0.255341,0.471909l0.255371,0.47197l0.153214,-0.09436l0.102158,-0.141632l0.766083,-0.141556l0.766068,-0.094421l0.612885,1.179916q0.66394,1.179871 0,2.029404q-0.612885,0.802307 -1.378952,0.943878q-0.766083,0.094421 -0.86824,1.982239q-0.153214,1.887817 0.357498,13.450638q0.510742,11.562866 0.66394,11.657288q0.102173,0.141556 0.612869,0.377548l0.510712,0.235977l0,0.141571l0,0.094421l-0.766068,0.09436l-0.766083,0.141571l-1.276794,0.141617l-1.276825,0.09436l-1.53215,0.094421q-1.532196,0.141571 -5.107224,0.47197l-3.575058,0.377548l0,-0.094406l0,-0.141571l0.102127,-0.141571l0.153214,-0.094421l0.255371,-23.597641q0.255371,-23.597717 0.510712,-24.54158q0.255371,-0.943924 1.787521,-3.067734q1.532196,-2.123779 3.42186,-3.775612z"/>
   <path fill="none" fill-rule="evenodd" stroke="#000000" stroke-width="5" d="m179.357712,39.27272l0.102158,1.179874l19.152084,0.094391q19.152115,0.14159 20.428879,0.377579q1.27681,0.235981 2.808975,0.471939l1.532227,0.235989l1.021408,0.141594l1.021423,0.094387l-0.102097,0.707928l-0.153244,0.707932l-1.276825,1.887814q-1.27681,1.887802 -1.429993,38.133823q-0.102158,36.198814 -2.553635,36.812347q-2.400406,0.566376 -2.655746,1.274284l-0.255341,0.707932l-0.153244,0.094383l-0.102158,0.141617l-0.102158,0.141548l-0.153183,0.094421l-0.153229,0.094391l-0.102112,0.141563l-0.102158,0.141602l-0.153229,0.094383l-0.153183,0.094391l-0.102158,0.141594l0,0.141571l0,0.094383l-0.510742,-0.094383l-0.510742,-0.141571l-0.102097,-0.141594l-0.153229,-0.094391l-0.153183,-0.094383l-0.102173,-0.141602l-0.102158,-0.141563l-0.153244,-0.094391l-0.153183,-0.094421l-0.102158,-0.141548l-0.102142,-0.141617l-0.153183,-0.094383l0,-0.471947q0,-0.47197 -0.153244,-1.179893q-0.102173,-0.707924 -1.378937,-0.707924l-1.27681,0l0,-37.284325l0,-37.284298l-19.1521,-0.094387q-19.1521,-0.14159 -23.49324,0.094387q-4.341125,0.235962 -5.873337,-0.235977q-1.53215,-0.471977 -3.830399,-2.123814q-2.298264,-1.651802 -4.74971,-5.757824q-2.400391,-4.153172 -2.911148,-8.872709q-0.510712,-4.719555 0.255386,-8.023203l0.766068,-3.303677l0.153214,-0.235979l0.102158,-0.235989l0.766083,-0.094389l0.766083,-0.141563l0.102158,-0.141602l0.153198,-0.094388l0.153214,0.094388l0.102158,0.141602l0.102142,0.141563l0.153198,0.094389l0.153214,-0.471942l0.102173,-0.471969l0.510727,0.094389l0.510712,0.141589l-0.102158,0.141603q-0.153214,0.094388 -0.306427,0.188776l-0.102127,0.141602l0.102127,0.141563l0.153214,0.094389l0.153214,0.094385l0.102158,0.141603l0.102173,0.14159l0.153214,0.094389l0,0.471941l0,0.471939l0,0.471977l0,0.471941l0.255325,0.471968l0.255371,0.471941l0.153214,-0.094387l0.102158,-0.141602l0.102142,-0.141563l0.153244,-0.094389l0.255325,-0.707928l0.255371,-0.707947l1.685364,-2.265381q1.634323,-2.218168 3.421844,-3.162076q1.787537,-0.943919 4.341141,-0.70793q2.553604,0.235979 4.698669,2.265368q2.196075,1.982217 3.370743,5.521845q1.123611,3.539665 1.736481,3.30368q0.66391,-0.235952 1.327881,1.274281q0.612854,1.557453 1.123566,2.642937q0.510742,1.038296 1.021454,1.038296q0.510742,0 0.102158,3.303677q-0.357513,3.303677 -0.612869,5.191505q-0.255371,1.887787 -0.102158,3.067684z"/>
   <path fill="none" fill-rule="evenodd" stroke="#000000" stroke-width="5" d="m267.201996,242.920593l0.102173,3.30368l-0.612915,5.427475q-0.66391,5.427444 -2.860016,10.713364q-2.14505,5.333038 -5.464752,8.400757q-3.319672,3.067688 -5.107224,3.539642q-1.787506,0.471924 -3.064316,0.613556l-1.276825,0.09436l-1.532166,-0.09436q-1.53215,-0.141632 -3.064316,-0.613556q-1.53215,-0.471954 -3.166473,-1.746246q-1.68541,-1.321442 -3.575058,-2.973267q-1.94075,-1.651855 -2.860062,-3.539673q-0.86824,-1.887817 -2.553635,-8.023193l-1.634323,-6.135391l0.102158,-7.07933q0.153244,-7.079315 1.021484,-9.344635q0.91925,-2.218231 1.838577,-4.436401q0.86824,-2.265366 1.736481,-4.719528q0.91925,-2.501358 3.983627,-5.097076q3.064331,-2.595779 4.851822,-3.30368q1.787567,-0.707947 5.617966,-0.47197q3.830399,0.235992 5.771133,1.321442q1.889725,1.038345 2.042892,1.510269q0.102173,0.47197 -0.408569,0.47197q-0.510681,0 1.532227,2.73735q2.042847,2.690125 3.064301,2.548508q1.021454,-0.09436 2.655731,4.153198q1.685425,4.247559 2.196167,6.843338q0.510681,2.595718 0.66391,5.899399z"/>
  </g>
 </g>
</svg>